HIERARCHY
ROOT hip
{
  OFFSET -20.3985 86.9407 26.3306
  CHANNELS 6 Xposition Yposition Zposition Zrotation Xrotation Yrotation
  JOINT abdomen
  {
    OFFSET 0 20.6881 -0.73152
    CHANNELS 3 Zrotation Xrotation Yrotation
    JOINT chest
    {
      OFFSET 0 11.7043 -0.48768
      CHANNELS 3 Zrotation Xrotation Yrotation
      JOINT neck
      {
        OFFSET 0 22.1894 -2.19456
        CHANNELS 3 Zrotation Xrotation Yrotation
        JOINT head
        {
          OFFSET -0.24384 7.07133 1.2192
          CHANNELS 3 Zrotation Xrotation Yrotation
          JOINT leftEye
          {
            OFFSET 4.14528 8.04674 8.04672
            CHANNELS 3 Zrotation Xrotation Yrotation
            End Site
            {
              OFFSET 1 0 0
            }
          }
          JOINT rightEye
          {
            OFFSET -3.6576 8.04674 8.04672
            CHANNELS 3 Zrotation Xrotation Yrotation
            End Site
            {
              OFFSET 1 0 0
            }
          }
        }
      }
      JOINT rCollar
      {
        OFFSET -2.68224 19.2634 -4.8768
        CHANNELS 3 Zrotation Xrotation Yrotation
        JOINT rShldr
        {
          OFFSET -8.77824 -1.95073 1.46304
          CHANNELS 3 Zrotation Xrotation Yrotation
          JOINT rForeArm
          {
            OFFSET -28.1742 -1.7115 0.48768
            CHANNELS 3 Zrotation Xrotation Yrotation
            JOINT rHand
            {
              OFFSET -22.5879 0.773209 7.07136
              CHANNELS 3 Zrotation Xrotation Yrotation
              JOINT rThumb1
              {
                OFFSET -1.2192 -0.487915 3.41376
                CHANNELS 3 Zrotation Xrotation Yrotation
                JOINT rThumb2
                {
                  OFFSET -3.37035 -0.52449 3.41376
                  CHANNELS 3 Zrotation Xrotation Yrotation
                  End Site
                  {
                    OFFSET -1.78271 -1.18214 1.43049
                  }
                }
              }
              JOINT rIndex1
              {
                OFFSET -7.75947 0.938293 5.60832
                CHANNELS 3 Zrotation Xrotation Yrotation
                JOINT rIndex2
                {
                  OFFSET -2.54057 -0.884171 1.56538
                  CHANNELS 3 Zrotation Xrotation Yrotation
                  End Site
                  {
                    OFFSET -1.62519 -0.234802 1.16502
                  }
                }
              }
              JOINT rMid1
              {
                OFFSET -8.24714 1.18213 3.41376
                CHANNELS 3 Zrotation Xrotation Yrotation
                JOINT rMid2
                {
                  OFFSET -3.10165 -0.590103 1.0647
                  CHANNELS 3 Zrotation Xrotation Yrotation
                  End Site
                  {
                    OFFSET -2.48547 -0.328903 0.83742
                  }
                }
              }
              JOINT rRing1
              {
                OFFSET -8.82822 0.546677 1.51678
                CHANNELS 3 Zrotation Xrotation Yrotation
                JOINT rRing2
                {
                  OFFSET -2.60934 -0.819778 -0.0198488
                  CHANNELS 3 Zrotation Xrotation Yrotation
                  End Site
                  {
                    OFFSET -2.33842 -0.294052 0.168128
                  }
                }
              }
              JOINT rPinky1
              {
                OFFSET -8.27202 -0.0477905 -0.4584
                CHANNELS 3 Zrotation Xrotation Yrotation
                JOINT rPinky2
                {
                  OFFSET -1.82734 -0.647385 -0.700984
                  CHANNELS 3 Zrotation Xrotation Yrotation
                  End Site
                  {
                    OFFSET -1.69225 -0.51767 -0.607171
                  }
                }
              }
            }
          }
        }
      }
      JOINT lCollar
      {
        OFFSET 2.68224 19.2634 -4.8768
        CHANNELS 3 Zrotation Xrotation Yrotation
        JOINT lShldr
        {
          OFFSET 8.77824 -1.95073 1.46304
          CHANNELS 3 Zrotation Xrotation Yrotation
          JOINT lForeArm
          {
            OFFSET 28.1742 -1.7115 0.48768
            CHANNELS 3 Zrotation Xrotation Yrotation
            JOINT lHand
            {
              OFFSET 22.5879 0.773209 7.07136
              CHANNELS 3 Zrotation Xrotation Yrotation
              JOINT lThumb1
              {
                OFFSET 1.2192 -0.487915 3.41376
                CHANNELS 3 Zrotation Xrotation Yrotation
                JOINT lThumb2
                {
                  OFFSET 3.37035 -0.52449 3.41376
                  CHANNELS 3 Zrotation Xrotation Yrotation
                  End Site
                  {
                    OFFSET 1.78271 -1.18214 1.43049
                  }
                }
              }
              JOINT lIndex1
              {
                OFFSET 7.75947 0.938293 5.60832
                CHANNELS 3 Zrotation Xrotation Yrotation
                JOINT lIndex2
                {
                  OFFSET 2.54057 -0.884171 1.56538
                  CHANNELS 3 Zrotation Xrotation Yrotation
                  End Site
                  {
                    OFFSET 1.62519 -0.234802 1.16502
                  }
                }
              }
              JOINT lMid1
              {
                OFFSET 8.24714 1.18213 3.41376
                CHANNELS 3 Zrotation Xrotation Yrotation
                JOINT lMid2
                {
                  OFFSET 3.10165 -0.590103 1.0647
                  CHANNELS 3 Zrotation Xrotation Yrotation
                  End Site
                  {
                    OFFSET 2.48547 -0.328903 0.83742
                  }
                }
              }
              JOINT lRing1
              {
                OFFSET 8.82822 0.546677 1.51678
                CHANNELS 3 Zrotation Xrotation Yrotation
                JOINT lRing2
                {
                  OFFSET 2.60934 -0.819778 -0.0198488
                  CHANNELS 3 Zrotation Xrotation Yrotation
                  End Site
                  {
                    OFFSET 2.33842 -0.294052 0.168128
                  }
                }
              }
              JOINT lPinky1
              {
                OFFSET 8.27202 -0.0477905 -0.4584
                CHANNELS 3 Zrotation Xrotation Yrotation
                JOINT lPinky2
                {
                  OFFSET 1.82734 -0.647385 -0.700984
                  CHANNELS 3 Zrotation Xrotation Yrotation
                  End Site
                  {
                    OFFSET 1.69225 -0.51767 -0.607171
                  }
                }
              }
            }
          }
        }
      }
    }
  }
  JOINT rButtock
  {
    OFFSET -8.77824 4.35084 1.2192
    CHANNELS 3 Zrotation Xrotation Yrotation
    JOINT rThigh
    {
      OFFSET 0 -1.70687 -2.19456
      CHANNELS 3 Zrotation Xrotation Yrotation
      JOINT rShin
      {
        OFFSET 0 -36.8199 0.73152
        CHANNELS 3 Zrotation Xrotation Yrotation
        JOINT rFoot
        {
          OFFSET 0.73152 -45.1104 -5.12064
          CHANNELS 3 Zrotation Xrotation Yrotation
          End Site
          {
            OFFSET -1.1221 -3.69964 12.103
          }
        }
      }
    }
  }
  JOINT lButtock
  {
    OFFSET 8.77824 4.35084 1.2192
    CHANNELS 3 Zrotation Xrotation Yrotation
    JOINT lThigh
    {
      OFFSET 0 -1.70687 -2.19456
      CHANNELS 3 Zrotation Xrotation Yrotation
      JOINT lShin
      {
        OFFSET 0 -36.8199 0.73152
        CHANNELS 3 Zrotation Xrotation Yrotation
        JOINT lFoot
        {
          OFFSET -0.73152 -45.1104 -5.12064
          CHANNELS 3 Zrotation Xrotation Yrotation
          End Site
          {
            OFFSET 1.1221 -3.69964 12.103
          }
        }
      }
    }
  }
}
MOTION
Frames:	6
Frame Time:	0.00833333
-9.84479 83.5625 31.4919 -0.43245 -0.00109267 0.00738282 0.569012 -0.00295247 0.0162653 0.157041 -0.00456254 0.0272098 8.37704e-015 -7.95139e-016 -1.36664e-016 2.53171e-014 9.54166e-015 -3.96016e-016 -0 0 0 -0 0 0 4.27262e-015 -1.0871e-017 9.93923e-017 9.18389e-014 -1.05604e-016 1.98785e-016 1.53382e-012 -4.62771e-013 -9.54166e-015 1.75816e-011 4.33972e-013 -2.63986e-013 4.14677e-011 -6.46736e-014 -5.82042e-013 7.1607e-011 -1.145e-013 -1.01937e-012 4.14752e-011 -6.20208e-014 -5.88403e-013 7.73091 5.47488 0.417314 4.1468e-011 -6.41081e-014 -5.85222e-013 2.90554 0.965183 0.102902 4.14777e-011 -6.44062e-014 -5.87607e-013 10.2786 0.731801 0.0259123 4.14639e-011 -6.48038e-014 -5.85222e-013 2.22167 -0.733487 -0.20892 4.176e-015 -1.04828e-017 -1.98785e-016 8.63233e-014 -2.11209e-016 -1.98785e-015 1.53417e-012 4.53627e-013 -6.67917e-014 1.75645e-011 -4.87793e-013 -2.00375e-013 4.14392e-011 -7.27678e-014 -6.01125e-013 7.15712e-011 -1.27222e-013 -1.02175e-012 4.14339e-011 -7.11649e-014 -5.91583e-013 -7.73091 5.47488 -0.417314 4.14381e-011 -7.28546e-014 -6.01125e-013 -2.90554 0.965183 -0.102902 4.14311e-011 -7.28546e-014 -5.93173e-013 -10.2786 0.731801 -0.0259123 4.14363e-011 -7.43455e-014 -5.94764e-013 -2.22167 -0.733487 0.20892 -2.03217e-016 0 -3.88251e-019 0.928505 -4.52918 -0.0776688 -0.00199883 2.65217 -0.00873321 -0.500751 1.87722 0.0953199 2.03217e-016 0 3.88251e-019 -0.0624176 -2.33914 0.02215 0.00810097 -1.31476 0.0693808 0.493103 3.65401 -0.130514 
-14.5238 81.2723 24.689 -4.3724 -5.17679 27.3109 0.804655 6.04877 -2.96925 -0.406016 -1.21943 -0.884758 2.2073 4.47753 2.38982 -3.96469 -7.15287 3.88407 -0 0 0 -0 0 0 1.48141e-014 -3.52035e-014 6.12133e-014 18.7761 0.571754 -3.76636 -20.5564 -18.3427 15.1477 0.224634 -10.5474 -1.39325 1.47131e-010 -1.52926e-009 4.30601e-010 2.41597e-010 -2.6515e-009 7.45887e-010 1.47138e-010 -1.52926e-009 4.30595e-010 7.73091 5.47488 0.417314 1.47132e-010 -1.52926e-009 4.30599e-010 2.90554 0.965183 0.102902 1.47141e-010 -1.52926e-009 4.30597e-010 10.2786 0.731801 0.0259123 1.47127e-010 -1.52926e-009 4.30601e-010 2.22167 -0.733487 -0.20892 1.46575e-014 -3.52039e-014 6.09027e-014 -18.716 7.06206 0.0378521 15.5291 -12.816 -14.676 -0.0134311 -2.57119 0.360044 1.06498e-010 1.61153e-010 -7.21156e-010 1.89407e-010 2.79404e-010 -1.2452e-009 1.06488e-010 1.61153e-010 -7.21142e-010 -7.73091 5.47488 -0.417314 1.06497e-010 1.61154e-010 -7.21156e-010 -2.90554 0.965183 -0.102902 1.0649e-010 1.61154e-010 -7.21151e-010 -10.2786 0.731801 -0.0259123 1.06497e-010 1.61155e-010 -7.21151e-010 -2.22167 -0.733487 0.20892 -2.03217e-016 0 -3.88251e-019 3.32668 -12.3485 1.45817 0.0264308 15.0292 0.191297 -0.639139 -2.8936 -0.835272 2.03217e-016 0 3.88251e-019 1.23983 -12.545 2.5975 0.00144445 14.602 -0.141769 -0.06027 2.27242 -4.3834 
-14.0236 81.1825 24.4991 -4.00931 -6.59112 56.5122 1.74731 12.385 -6.22474 -1.06431 -2.50048 -1.84776 4.1252 9.16557 4.964 -7.0571 -14.5804 8.19575 -0 0 0 -0 0 0 2.65106e-014 -7.50582e-014 1.29135e-013 38.7124 1.1609 -7.76318 -30.5494 -33.2061 36.1053 -0.133978 -21.6689 -3.03129 2.59488e-010 -3.2077e-009 9.03351e-010 4.2195e-010 -5.56125e-009 1.5647e-009 2.59494e-010 -3.2077e-009 9.03345e-010 7.73091 5.47488 0.417314 2.59489e-010 -3.20771e-009 9.0335e-010 2.90554 0.965183 0.102902 2.59497e-010 -3.2077e-009 9.03348e-010 10.2786 0.731801 0.0259123 2.59484e-010 -3.2077e-009 9.03354e-010 2.22167 -0.733487 -0.20892 2.62871e-014 -7.50592e-014 1.28812e-013 -38.5983 14.5193 0.190003 24.5604 -23.415 -32.3572 0.00764081 -5.28803 0.742947 1.76552e-010 3.38448e-010 -1.51312e-009 3.1641e-010 5.86804e-010 -2.61269e-009 1.76537e-010 3.38447e-010 -1.5131e-009 -7.73091 5.47488 -0.417314 1.76551e-010 3.38449e-010 -1.51312e-009 -2.90554 0.965183 -0.102902 1.76544e-010 3.38449e-010 -1.51312e-009 -10.2786 0.731801 -0.0259123 1.76552e-010 3.38454e-010 -1.51311e-009 -2.22167 -0.733487 0.20892 -2.03217e-016 0 -3.88251e-019 6.3461 -20.5868 3.26117 -0.0491661 28.1736 0.442971 -0.964964 -7.96824 -1.86868 2.03217e-016 0 3.88251e-019 3.67711 -23.2328 5.65084 0.138814 31.3779 -0.41612 -0.860053 0.864563 -8.89229 
-13.4818 81.1778 24.3907 -2.96926 -2.52574 81.94 3.24131 17.9505 -9.34954 -1.6483 -3.64553 -2.71359 5.47823 13.3378 7.34679 -8.8315 -21.0501 12.4008 -0 0 0 -0 0 0 3.58969e-014 -1.05589e-013 1.83441e-013 56.5524 1.68565 -11.3035 -29.9733 -37.7072 59.6981 -1.09006 -31.5604 -4.82398 3.58458e-010 -4.58765e-009 1.29297e-009 5.81576e-010 -7.95428e-009 2.2397e-009 3.58463e-010 -4.58766e-009 1.29296e-009 7.73091 5.47488 0.417314 3.58459e-010 -4.58766e-009 1.29297e-009 2.90554 0.965183 0.102902 3.58467e-010 -4.58765e-009 1.29297e-009 10.2786 0.731801 0.0259123 3.58453e-010 -4.58765e-009 1.29297e-009 2.22167 -0.733487 -0.20892 3.56206e-014 -1.05591e-013 1.83106e-013 -56.1777 21.1861 0.120864 27.0856 -27.8959 -50.3836 0.0573976 -7.71236 1.0889 2.36616e-010 4.83605e-010 -2.16227e-009 4.25079e-010 8.38466e-010 -3.73355e-009 2.36597e-010 4.83602e-010 -2.16224e-009 -7.73091 5.47488 -0.417314 2.36615e-010 4.83607e-010 -2.16227e-009 -2.90554 0.965183 -0.102902 2.36607e-010 4.83607e-010 -2.16227e-009 -10.2786 0.731801 -0.0259123 2.36617e-010 4.83614e-010 -2.16226e-009 -2.22167 -0.733487 0.20892 -2.03217e-016 0 -3.88251e-019 9.52573 -27.9078 5.01229 -0.243117 39.7812 0.743941 -1.38933 -12.4222 -2.75777 2.03217e-016 0 3.88251e-019 7.03611 -32.6711 8.99424 0.462652 46.4329 -0.798463 -1.77776 -0.458973 -12.8798 
-12.9852 81.2896 24.2914 -3.72395 3.50214 98.6352 4.71753 21.7769 -11.764 -1.96535 -4.45399 -3.33188 6.22507 16.3097 9.08615 -9.50932 -25.5105 15.6381 -0 0 0 -0 0 0 3.95075e-014 -1.1281e-013 2.03705e-013 68.9973 2.07729 -13.6984 -28.4158 -34.667 74.7954 -2.23678 -38.453 -6.40773 4.23962e-010 -5.22137e-009 1.47475e-009 6.89381e-010 -9.05553e-009 2.5552e-009 4.23966e-010 -5.22137e-009 1.47475e-009 7.73091 5.47488 0.417314 4.23962e-010 -5.22138e-009 1.47475e-009 2.90554 0.965183 0.102902 4.2397e-010 -5.22137e-009 1.47475e-009 10.2786 0.731801 0.0259123 4.23957e-010 -5.22137e-009 1.47476e-009 2.22167 -0.733487 -0.20892 3.92138e-014 -1.12812e-013 2.03357e-013 -67.8336 25.8757 -0.558571 27.2995 -27.3952 -63.1024 0.109769 -9.4066 1.33414 2.71704e-010 5.48417e-010 -2.45438e-009 4.87915e-010 9.50782e-010 -4.23786e-009 2.71683e-010 5.48414e-010 -2.45435e-009 -7.73091 5.47488 -0.417314 2.71704e-010 5.48419e-010 -2.45438e-009 -2.90554 0.965183 -0.102902 2.71695e-010 5.4842e-010 -2.45438e-009 -10.2786 0.731801 -0.0259123 2.71706e-010 5.48427e-010 -2.45438e-009 -2.22167 -0.733487 0.20892 -2.03217e-016 0 -3.88251e-019 12.0066 -33.0183 6.17097 -0.477845 47.5492 1.02475 -1.68941 -15.34 -3.21564 2.03217e-016 0 3.88251e-019 10.3432 -39.2465 11.9407 0.92656 57.1878 -1.2692 -2.59028 -1.6102 -15.5657 
-12.5465 81.5115 24.1989 -4.8521 6.87432 104.557 5.49198 23.338 -12.901 -1.86165 -4.79487 -3.59982 6.50526 17.6742 9.80514 -9.77806 -27.4646 16.9949 -0 0 0 -0 0 0 4.06008e-014 -1.09978e-013 1.71766e-013 73.8159 2.30633 -14.4906 -28.3221 -32.2703 79.5145 -2.8406 -41.2266 -7.15853 4.05971e-010 -4.63918e-009 1.31647e-009 6.62915e-010 -8.04837e-009 2.28148e-009 4.05974e-010 -4.63918e-009 1.31647e-009 7.73091 5.47488 0.417314 4.05971e-010 -4.63918e-009 1.31647e-009 2.90554 0.965183 0.102902 4.05979e-010 -4.63918e-009 1.31647e-009 10.2786 0.731801 0.0259123 4.05966e-010 -4.63918e-009 1.31648e-009 2.22167 -0.733487 -0.20892 4.03469e-014 -1.09982e-013 1.714e-013 -71.1808 27.834 -2.08774 27.4494 -26.575 -68.2132 0.135339 -10.1074 1.43657 2.52326e-010 4.81563e-010 -2.2003e-009 4.52541e-010 8.34825e-010 -3.79901e-009 2.52309e-010 4.81561e-010 -2.20028e-009 -7.73091 5.47488 -0.417314 2.52327e-010 4.81565e-010 -2.2003e-009 -2.90554 0.965183 -0.102902 2.52317e-010 4.81565e-010 -2.2003e-009 -10.2786 0.731801 -0.0259123 2.5233e-010 4.8157e-010 -2.2003e-009 -2.22167 -0.733487 0.20892 -2.03217e-016 0 -3.88251e-019 12.9113 -35.0752 6.12761 -0.578816 49.9378 1.13043 -1.64418 -16.1099 -2.99986 2.03217e-016 0 3.88251e-019 12.1674 -42.1161 13.344 1.24928 61.9071 -1.58 -3.14203 -2.69247 -16.559 
